#N canvas 466 676 524 172 10;
#X obj 30 78 ctlout 1 1;
#X floatatom 30 40 5 0 0 0 - - -;
#X obj 126 78 ctlout 2 1;
#X text 70 40 SAMPLE;
#X msg 126 40 1;
#X msg 154 40 2;
#X msg 181 40 3;
#X text 211 40 ADCSRA;
#X obj 258 79 ctlout 3 1;
#X floatatom 258 40 5 0 0 0 - - -;
#X text 295 38 Delay;
#X floatatom 204 77 5 0 0 0 - - -;
#X floatatom 342 41 5 0 0 0 - - -;
#X obj 342 80 ctlout 4 1;
#X text 379 39 Midi Delay;
#X connect 1 0 0 0;
#X connect 4 0 2 0;
#X connect 4 0 11 0;
#X connect 5 0 2 0;
#X connect 5 0 11 0;
#X connect 6 0 2 0;
#X connect 6 0 11 0;
#X connect 9 0 8 0;
#X connect 12 0 13 0;
