#N canvas 194 378 1129 666 10;
#X obj 58 154 ctlout 1 1;
#X floatatom 58 116 5 0 0 0 - - -;
#X obj 198 171 ctlout 2 1;
#X text 98 116 SAMPLE;
#X msg 164 115 1;
#X msg 192 115 2;
#X msg 219 115 3;
#X text 170 93 ADCSRA;
#X obj 286 155 ctlout 3 1;
#X floatatom 286 116 5 0 0 0 - - -;
#X text 323 114 Delay;
#X floatatom 370 114 5 0 0 0 - - -;
#X obj 370 156 ctlout 4 1;
#X text 407 115 Midi Delay;
#X msg 164 144 4;
#X msg 193 144 5;
#X msg 219 144 6;
#X msg 164 172 7;
#X floatatom 139 209 5 0 0 0 - - -;
#X text 198 269 sample 89 \, prescale 4 \, delay 89 \, midi 15 --->
AC;
#X text 199 291 sample 85 \, prescale 4 \, delay 43 \, midi 16 --->
AC/DC;
#X text 198 315 sample 85 \, prescale 4 \, delay 43 \, midi 16 --->
AC/DC;
#X text 198 339 sample 85 \, prescale 3 \, delay 43 \, midi 16 --->
AC/DC;
#X obj 729 265 ctlout 5 1;
#X msg 524 127 1;
#X msg 524 153 2;
#X text 519 97 sense mode;
#X msg 523 186 3;
#X msg 526 224 4;
#X obj 370 219 ctlout 6 1;
#X floatatom 370 197 5 0 0 0 - - -;
#X text 202 366 sample 29 \, pre 4 \, delay 8 \, midi 7 \, sense 3
\,;
#X text 409 197 PWM on PB0;
#X text 863 132 value test;
#X text 551 126 TeenyTouchDusjagr.sense(PB4 \, PB2 \, samples) \;;
#X text 548 155 TeenyTouchDusjagr.touchPin(PB4 \, samples) \;;
#X text 556 186 TeenyTouchDusjagr.sense(PB4 \, PB3 \, samples) \;;
#X text 550 225 value = analogRead(3) \;;
#X text 178 194 Prescaler 2 \, 4 \, 8 \, 16 \, 32 \, 64 \, 128;
#X obj 88 281 ctlout 7 1;
#X msg 55 229 0;
#X text 84 229 Normal value;
#X text 82 257 velocity value;
#X msg 54 256 1;
#X floatatom 48 282 5 0 0 0 - - -;
#X floatatom 690 264 5 0 0 0 - - -;
#X msg 831 130 5;
#X text 201 389 sample * \, pre 4 \, delay 32 \, midi 98 \, sense 1
\, ---> AC/DC;
#X obj 641 429 ctlout 8 1;
#X msg 602 364 0;
#X msg 602 344 1;
#X msg 602 323 2;
#X msg 602 384 3;
#X msg 686 324 4;
#X msg 687 385 5;
#X msg 686 344 6;
#X msg 686 364 7;
#X text 588 287 Multiplexer;
#X text 200 445 sample 29 \, pre 4 \, delay 8-50 \, midi 7-50 \, sense
3 \,;
#X msg 64 39 29;
#X msg 110 39 4;
#X msg 152 41 8;
#X msg 200 41 20;
#X obj 134 -7 t b b b b b;
#X msg 247 41 3;
#X obj 110 -4 bng 15 250 50 0 empty empty empty 17 7 0 10 -262144 -1
-1;
#X text 202 478 sample 104 \, pre 4 \, delay 73 \, midi 20 \, sense
1 ---> AC/DC/MULTI;
#X msg 830 164 6;
#N canvas 58 225 697 503 TeenyMidiHiresCC 0;
#X obj 355 196 i;
#X obj 381 196 i;
#X obj 380 332 +;
#X floatatom 379 395 5 0 0 0 - - -;
#X obj 349 225 << 3;
#X obj 389 69 ctlin 4;
#X obj 338 41 ctlin 3;
#X obj 354 267 bondo 2;
#X connect 0 0 4 0;
#X connect 1 0 7 1;
#X connect 2 0 3 0;
#X connect 4 0 7 0;
#X connect 5 0 1 0;
#X connect 6 0 0 0;
#X connect 7 0 2 0;
#X connect 7 1 2 1;
#X restore 822 266 pd TeenyMidiHiresCC;
#X msg 744 366 0;
#X msg 744 346 1;
#X msg 744 325 2;
#X msg 744 386 3;
#X msg 828 326 4;
#X msg 829 387 5;
#X msg 828 346 6;
#X msg 828 366 7;
#X obj 783 431 ctlout 9 1;
#X floatatom 637 385 5 0 0 0 - - -;
#X floatatom 777 385 5 0 0 0 - - -;
#X connect 1 0 0 0;
#X connect 4 0 2 0;
#X connect 4 0 18 0;
#X connect 5 0 2 0;
#X connect 5 0 18 0;
#X connect 6 0 2 0;
#X connect 6 0 18 0;
#X connect 9 0 8 0;
#X connect 11 0 12 0;
#X connect 14 0 2 0;
#X connect 14 0 18 0;
#X connect 15 0 2 0;
#X connect 15 0 18 0;
#X connect 16 0 2 0;
#X connect 16 0 18 0;
#X connect 17 0 2 0;
#X connect 17 0 18 0;
#X connect 24 0 23 0;
#X connect 24 0 45 0;
#X connect 25 0 23 0;
#X connect 25 0 45 0;
#X connect 27 0 23 0;
#X connect 27 0 45 0;
#X connect 28 0 23 0;
#X connect 28 0 45 0;
#X connect 30 0 29 0;
#X connect 40 0 39 0;
#X connect 40 0 44 0;
#X connect 43 0 39 0;
#X connect 43 0 44 0;
#X connect 46 0 23 0;
#X connect 46 0 45 0;
#X connect 49 0 48 0;
#X connect 49 0 78 0;
#X connect 50 0 48 0;
#X connect 50 0 78 0;
#X connect 51 0 48 0;
#X connect 51 0 78 0;
#X connect 52 0 48 0;
#X connect 52 0 78 0;
#X connect 53 0 48 0;
#X connect 53 0 78 0;
#X connect 54 0 48 0;
#X connect 54 0 78 0;
#X connect 55 0 48 0;
#X connect 55 0 78 0;
#X connect 56 0 48 0;
#X connect 56 0 78 0;
#X connect 59 0 1 0;
#X connect 60 0 2 0;
#X connect 61 0 9 0;
#X connect 62 0 11 0;
#X connect 63 0 64 0;
#X connect 63 1 59 0;
#X connect 63 2 60 0;
#X connect 63 3 61 0;
#X connect 63 4 62 0;
#X connect 64 0 27 0;
#X connect 65 0 63 0;
#X connect 67 0 23 0;
#X connect 67 0 45 0;
#X connect 69 0 77 0;
#X connect 69 0 79 0;
#X connect 70 0 77 0;
#X connect 70 0 79 0;
#X connect 71 0 77 0;
#X connect 71 0 79 0;
#X connect 72 0 77 0;
#X connect 72 0 79 0;
#X connect 73 0 77 0;
#X connect 73 0 79 0;
#X connect 74 0 77 0;
#X connect 74 0 79 0;
#X connect 75 0 77 0;
#X connect 75 0 79 0;
#X connect 76 0 77 0;
#X connect 76 0 79 0;
