#N canvas 57 195 654 390 10;
#X obj 30 78 ctlout 1 1;
#X floatatom 30 40 5 0 0 0 - - -;
#X obj 170 95 ctlout 2 1;
#X text 70 40 SAMPLE;
#X msg 136 39 1;
#X msg 164 39 2;
#X msg 191 39 3;
#X text 142 17 ADCSRA;
#X obj 258 79 ctlout 3 1;
#X floatatom 258 40 5 0 0 0 - - -;
#X text 295 38 Delay;
#X floatatom 343 38 5 0 0 0 - - -;
#X obj 342 80 ctlout 4 1;
#X text 379 39 Midi Delay;
#X msg 136 68 4;
#X msg 165 68 5;
#X msg 191 68 6;
#X msg 136 96 7;
#X text 150 118 Prescaler 2 \, 4 \, 6 16 \, 32 \, 64 128;
#X floatatom 111 133 5 0 0 0 - - -;
#X text 37 201 sample 89 \, prescale 4 \, delay 89 \, midi 15 --->
AC;
#X text 38 223 sample 85 \, prescale 4 \, delay 43 \, midi 16 --->
AC/DC;
#X text 37 247 sample 85 \, prescale 4 \, delay 43 \, midi 16 --->
AC/DC;
#X text 37 271 sample 85 \, prescale 3 \, delay 43 \, midi 16 --->
AC/DC;
#X obj 518 131 ctlout 5 1;
#X msg 475 37 1;
#X msg 511 37 2;
#X text 545 37 sense mode;
#X msg 559 58 3;
#X msg 595 66 4;
#X obj 500 240 ctlout 6 1;
#X floatatom 492 191 5 0 0 0 - - -;
#X text 41 298 sample 29 \, pre 4 \, delay 8 \, midi 7 \, sense 3 \,
;
#X connect 1 0 0 0;
#X connect 4 0 2 0;
#X connect 4 0 19 0;
#X connect 5 0 2 0;
#X connect 5 0 19 0;
#X connect 6 0 2 0;
#X connect 6 0 19 0;
#X connect 9 0 8 0;
#X connect 11 0 12 0;
#X connect 14 0 2 0;
#X connect 14 0 19 0;
#X connect 15 0 2 0;
#X connect 15 0 19 0;
#X connect 16 0 2 0;
#X connect 16 0 19 0;
#X connect 17 0 2 0;
#X connect 17 0 19 0;
#X connect 25 0 24 0;
#X connect 26 0 24 0;
#X connect 28 0 24 0;
#X connect 29 0 24 0;
#X connect 31 0 30 0;
